<svg xmlns="http://www.w3.org/2000/svg" viewBox="0 0 1588 652" fill="currentColor" class="rizal-signature" aria-hidden="true"><path d="M 656.793 62.750 C 618.530 105.825, 607.806 119, 611.008 119 C 612.925 119, 621.380 114.265, 628.500 109.203 C 640.279 100.828, 654.104 88.733, 671.441 71.632 C 690.170 53.159, 690.413 52.677, 684.384 46.003 C 678.028 38.968, 677.788 39.114, 656.793 62.750 M 365.400 94.827 C 363.255 96.381, 348 108.337, 331.500 121.394 C 292.501 152.255, 288.700 154.091, 256.732 157.501 C 238.552 159.440, 230.976 161.685, 223.345 167.396 C 210.782 176.799, 191.910 198.593, 186.886 209.500 C 185.732 212.006, 185.036 215.834, 185.022 219.750 L 185 226 191.196 226 C 198.919 226, 202.864 223.528, 210.223 214.080 C 217.804 204.346, 221.676 200.426, 230.044 194.009 C 246.299 181.544, 262.762 172.069, 276.500 167.273 C 283.106 164.966, 301 162.837, 301 164.358 C 301 165.246, 291.757 178.126, 285.110 186.500 C 279.087 194.088, 253.469 223.408, 226.789 253.249 C 191.070 293.200, 172.676 316.899, 154.141 346.850 C 146.838 358.652, 121.283 385.313, 110.410 392.473 C 86.249 408.386, 42.387 452.212, 34.112 468.710 C 31.377 474.161, 31.449 475.421, 34.635 477.927 C 38.264 480.782, 41.396 480.530, 47.919 476.858 C 65.174 467.145, 106.070 429.555, 125.009 406 C 138.862 388.770, 148.983 379.268, 162 371.271 C 187.002 355.911, 206.196 345.993, 236.500 332.775 C 258.428 323.210, 291.235 309.902, 291.711 310.378 C 291.926 310.593, 291.194 314.322, 290.085 318.666 C 284.244 341.546, 286.931 348.847, 300.704 347.509 C 317.491 345.878, 324.731 341.042, 337.689 322.809 C 347 309.706, 349.081 308.630, 366.424 307.941 C 377.417 307.505, 381.924 306.887, 387 305.119 C 395.146 302.281, 412.810 293.057, 424.130 285.729 C 428.877 282.657, 433.377 280.022, 434.130 279.875 C 437.087 279.298, 439.911 281.202, 441.003 284.508 C 442.963 290.449, 439.721 295.674, 425.522 309.457 C 410.801 323.746, 407 329.254, 407 336.295 C 407 342.422, 409.416 347.651, 413.420 350.187 C 415.984 351.811, 417.756 352.060, 424 351.673 C 434.081 351.049, 441.871 347.780, 460.964 336.163 C 477.281 326.235, 494.511 317.448, 499.692 316.412 C 502.558 315.838, 502.914 316.108, 505.121 320.528 C 507.999 326.290, 513.997 331.612, 519.447 333.239 C 526.313 335.290, 554.654 334.636, 566.500 332.153 C 599.171 325.307, 630.104 309.546, 669.836 279.500 C 687.964 265.791, 702.723 253, 742.583 216.446 C 778.778 183.254, 789.533 173.789, 801 165.036 C 810.506 157.780, 821.872 150, 822.968 150 C 824.224 150, 821.405 159.881, 817.522 169.088 C 807.445 192.981, 784.031 226.941, 737.604 285 C 714.148 314.333, 711.802 317.855, 713.696 320.905 C 715.164 323.270, 722.115 325.434, 725.564 324.601 C 731.690 323.120, 751.068 299.206, 785.836 250.221 C 792.582 240.718, 801.625 228.568, 805.932 223.221 C 829.481 193.993, 901.857 133.940, 919.482 129.005 C 925.096 127.433, 925.644 127.907, 924.117 133.005 C 920.705 144.392, 902.854 166.001, 884.500 180.961 C 873.818 189.667, 857 205.975, 857 207.626 C 857 208.915, 863.905 213.480, 871.250 217.048 C 873.863 218.317, 877.463 220.577, 879.250 222.070 C 882.276 224.598, 882.391 224.913, 880.915 226.642 C 850.776 261.964, 843.972 273.146, 844.022 287.273 C 844.070 301.024, 851.747 309, 864.934 309 C 885.447 309, 906.062 301.478, 941.339 281.121 C 965.144 267.384, 980.452 260, 985.125 260 C 985.572 260, 985.667 263.512, 985.336 267.805 C 984.499 278.659, 986.863 284.167, 993.648 287.168 C 1003.046 291.326, 1020.320 288.038, 1041.557 278.051 C 1053.892 272.250, 1062.996 266.176, 1078.573 253.354 C 1100.955 234.931, 1102.749 233.975, 1106.826 238.314 C 1111.732 243.537, 1109.116 247.453, 1095.838 254.761 C 1087.349 259.434, 1084.275 262.377, 1083.421 266.646 L 1082.811 269.695 1089.033 270.346 C 1101.485 271.647, 1107 274.625, 1107 280.048 C 1107 283.393, 1107.003 283.390, 1087.500 295.620 C 1053.539 316.916, 1016.741 352.463, 1010.271 370.222 C 1009.324 372.820, 1007.837 375.891, 1006.965 377.046 C 1004.832 379.875, 987.250 384.806, 713 459.505 C 438.839 534.179, 314.246 572.372, 240 604.499 C 212.599 616.355, 193.831 627.210, 193.206 631.564 C 192.801 634.380, 196.089 637.070, 200.672 637.674 C 203.929 638.103, 206.515 637.175, 218 631.460 C 314.754 583.313, 452.282 539.023, 724 468.507 C 852.644 435.121, 954.782 407.412, 998.855 393.942 C 1002.351 392.874, 1005.759 392, 1006.429 392 C 1007.099 392, 1009.815 395.173, 1012.465 399.052 C 1019.200 408.908, 1022.474 410.524, 1035.500 410.421 C 1044.251 410.351, 1046.502 409.947, 1053.525 407.185 C 1065.087 402.637, 1076.058 395.019, 1087.575 383.541 C 1093.117 378.018, 1098.341 372.935, 1099.184 372.245 C 1100.028 371.554, 1108.769 369.228, 1118.609 367.075 C 1128.449 364.922, 1145.050 361.297, 1155.500 359.020 C 1252.826 337.813, 1306.078 321.849, 1350.667 300.515 C 1414.383 270.028, 1437.246 237.115, 1423.478 195.696 L 1420.690 187.307 1434.215 173.904 C 1452.204 156.075, 1460.255 144.741, 1468.318 125.892 C 1474.757 110.840, 1472.940 103.946, 1461.741 100.930 C 1446.534 96.835, 1422.300 116.422, 1407.810 144.519 C 1401.409 156.930, 1399.037 164.601, 1398.035 176.137 C 1397.360 183.907, 1396.630 186.956, 1394.623 190.380 C 1386.616 204.044, 1348.039 230.550, 1316.660 243.951 C 1283.926 257.929, 1278.624 255.880, 1277.306 228.744 C 1276.607 214.334, 1276.109 212.646, 1271.775 210.004 C 1265.793 206.357, 1255.966 207.738, 1238.500 214.679 C 1216.606 223.381, 1176.558 243.478, 1140.750 263.733 L 1124.001 273.208 1120.591 270.214 C 1118.715 268.567, 1115.790 266.398, 1114.090 265.394 C 1112.391 264.390, 1111 263.247, 1111 262.853 C 1111 262.460, 1114.487 259.098, 1118.750 255.382 C 1130.802 244.875, 1133 241.115, 1133 231.007 C 1133 224.022, 1132.656 223.746, 1122.500 222.578 C 1109.816 221.119, 1108.792 220.219, 1107.547 209.435 C 1106.613 201.344, 1106.341 201.023, 1101.217 201.960 C 1096.043 202.906, 1093.727 204.867, 1090.909 210.688 C 1088.820 215.003, 1088.531 223.526, 1090.322 228 C 1090.741 229.047, 1088.442 231.356, 1082.711 235.646 C 1078.195 239.026, 1070 245.238, 1064.500 249.451 C 1058.894 253.745, 1049.577 259.574, 1043.298 262.717 C 1032.196 268.274, 1032.002 268.328, 1021.444 268.798 L 1010.791 269.271 1011.161 260.386 C 1011.558 250.855, 1011.789 250.220, 1021.457 232.104 C 1023.921 227.486, 1025.707 223.335, 1025.427 222.881 C 1025.146 222.427, 1023.140 221.523, 1020.970 220.873 C 1017.130 219.722, 1016.834 219.817, 1009.969 224.382 C 1006.089 226.962, 996.551 233.825, 988.774 239.633 C 961.094 260.307, 950.195 266.896, 926.359 277.367 C 905.158 286.680, 892.374 290.986, 883.755 291.717 C 877.027 292.288, 877 292.280, 873.642 288.719 C 863.586 278.057, 867.383 265.180, 887.420 242 C 894.293 234.048, 898.953 225.007, 899.171 219.202 C 899.357 214.218, 898.322 212.899, 890.720 208.435 C 880.789 202.604, 882.474 199.388, 909.552 172.500 C 936.721 145.522, 942.935 136.565, 942.978 124.323 C 942.998 118.764, 942.724 117.927, 940.250 115.971 C 937.784 114.021, 936.566 113.837, 928.444 114.186 C 917.480 114.657, 911.787 117.095, 901.409 125.761 C 871.388 150.831, 837.705 178, 836.648 178 C 835.932 178, 838.810 173.032, 859.768 138.091 C 868.810 123.015, 877.027 108.769, 878.029 106.432 L 879.851 102.182 877.175 102.980 C 854.982 109.595, 834.215 124.221, 773.500 175.995 C 699.457 239.136, 676.458 257.353, 644.045 278.533 C 602.998 305.357, 573.783 317.235, 545.303 318.680 C 531.431 319.384, 528.973 318.574, 526.416 312.454 C 524.080 306.863, 524.472 306.285, 533.750 301.624 C 550.477 293.221, 559.729 284.037, 562.089 273.495 C 565.160 259.772, 554.943 249.815, 541.453 253.384 C 524.011 257.999, 511.292 271.751, 503.424 294.500 C 501.474 300.137, 496.999 304.799, 488.778 309.758 C 482.174 313.741, 443.577 331.025, 439.711 331.730 C 436.278 332.356, 427.992 330.152, 428.022 328.620 C 428.077 325.818, 432.260 318.738, 438.166 311.450 C 455.993 289.454, 459.299 279.262, 453.394 264.511 C 451.960 260.930, 450.588 258, 450.344 258 C 449.221 258, 443.162 261.622, 431.823 269.072 C 408.287 284.533, 381.010 296.032, 368 295.976 C 365.525 295.965, 361.587 295.088, 359.250 294.027 L 355 292.098 355 285.598 C 355 282.023, 354.514 276.834, 353.921 274.066 C 352.897 269.293, 352.627 268.976, 348.671 267.906 C 342.885 266.340, 332.430 267.276, 326.484 269.892 C 323.037 271.408, 318.417 275.192, 311.500 282.164 L 301.500 292.245 274.500 303.965 C 259.650 310.410, 234.225 321.665, 218 328.974 C 201.775 336.284, 186.063 343.357, 183.085 344.692 L 177.671 347.120 180.528 343.310 C 184.894 337.486, 206.363 311.027, 227.029 286 C 320.229 173.132, 367.952 109.864, 370.536 95.750 C 371.365 91.224, 370.568 91.081, 365.400 94.827 M 1446.500 115.844 C 1433.199 123.988, 1412.166 163.743, 1418.415 168.930 C 1419.759 170.045, 1420.861 169.733, 1425.680 166.872 C 1442.037 157.162, 1457 136.339, 1457 123.287 C 1457 114.808, 1452.918 111.915, 1446.500 115.844 M 1061.500 121.896 C 1055.834 124.519, 1051.945 129.083, 1050.444 134.871 C 1048.960 140.592, 1049.427 143.562, 1052.312 146.750 C 1055.889 150.702, 1060.535 149.207, 1067.763 141.779 C 1074.920 134.424, 1075.613 125.739, 1069.338 122.037 C 1067.439 120.917, 1065.799 120.010, 1065.693 120.022 C 1065.587 120.034, 1063.700 120.877, 1061.500 121.896 M 1374.399 223.676 C 1317.813 261.692, 1296.562 272.451, 1281.424 270.744 C 1273.236 269.821, 1268.099 262.240, 1265.908 247.845 C 1264.047 235.615, 1262.826 234.788, 1256.796 241.671 C 1244.010 256.266, 1230.048 267.376, 1215.207 274.763 C 1206.715 278.989, 1205.155 279.424, 1197.125 279.808 L 1188.336 280.229 1186.668 276.713 C 1185.564 274.387, 1185 270.621, 1185 265.580 L 1185 257.962 1182.250 258.596 C 1174.814 260.309, 1132.449 280.374, 1127.094 284.719 L 1124.688 286.671 1126.586 296.086 C 1127.899 302.592, 1128.468 309.515, 1128.431 318.500 C 1128.373 332.746, 1126.768 338.582, 1120.272 348.172 C 1115.266 355.563, 1115.246 355.231, 1120.643 354.469 C 1129.887 353.165, 1157.577 347.873, 1176 343.890 C 1301.127 316.834, 1384.645 278.905, 1402.823 240.880 C 1407.609 230.870, 1409.522 222.876, 1408.570 216.872 C 1407.788 211.942, 1405.058 205.826, 1403.399 205.289 C 1402.793 205.093, 1389.743 213.367, 1374.399 223.676 M 1234.973 237.058 C 1223.398 238.763, 1210.421 245.043, 1209.552 249.360 C 1207.862 257.754, 1208.039 258, 1215.766 258 C 1222.522 258, 1228.478 254.657, 1237.250 245.942 C 1247.642 235.617, 1247.537 235.207, 1234.973 237.058 M 543.403 266.136 C 536.230 268.086, 526.781 280.210, 524.547 290.330 C 523.821 293.615, 525.008 293.495, 533.008 289.476 C 541.252 285.335, 545.120 280.032, 546.918 270.409 C 547.873 265.300, 547.617 264.990, 543.403 266.136 M 320.903 289.674 C 312.531 297.659, 308.638 305.804, 308.559 315.498 C 308.512 321.308, 308.885 323.205, 310.405 324.889 C 317.225 332.447, 332.813 317.815, 334.673 302.109 C 335.708 293.372, 332.101 284, 327.703 284 C 327.235 284, 324.175 286.553, 320.903 289.674 M 1106 297.220 C 1088.357 309.473, 1059.959 333.111, 1048.440 345.132 C 1038.880 355.108, 1027.323 371.768, 1029.724 372.111 C 1032.251 372.471, 1038.363 371.183, 1064 364.884 L 1092.500 357.882 1097 353.092 C 1107.453 341.965, 1113.155 328.006, 1113.783 312 C 1114.191 301.614, 1113.303 294.890, 1111.454 294.365 C 1110.929 294.217, 1108.475 295.501, 1106 297.220 M 1050.170 381.451 C 1038.439 384.371, 1028.342 387.258, 1027.734 387.866 C 1026.924 388.676, 1027.254 389.641, 1028.960 391.458 C 1036.072 399.027, 1053.504 396.944, 1067.568 386.844 C 1071.489 384.028, 1076 378.565, 1076 376.632 C 1076 375.337, 1070.961 376.278, 1050.170 381.451 M 92.483 419.119 C 84.507 421.280, 53.371 453.704, 56.381 456.714 C 58.518 458.852, 90.643 429.695, 94.456 422.157 C 96.464 418.189, 96.382 418.062, 92.483 419.119" stroke="none" fill="currentColor" fill-rule="evenodd"/></svg>
